<?xml version="1.0" standalone="no"?><svg xmlns="http://www.w3.org/2000/svg" viewBox="0 0 1440 320"><path fill="#4c0e08" fill-opacity="1.5" d="M0,160L40,165.3C80,171,160,181,240,165.3C320,149,400,107,480,112C560,117,640,171,720,202.7C800,235,880,245,960,208C1040,171,1120,85,1200,85.3C1280,85,1360,171,1400,213.3L1440,256L1440,320L1400,320C1360,320,1280,320,1200,320C1120,320,1040,320,960,320C880,320,800,320,720,320C640,320,560,320,480,320C400,320,320,320,240,320C160,320,80,320,40,320L0,320Z"></path></svg>